<svg width="25" height="24" viewBox="0 0 25 24" fill="none" xmlns="http://www.w3.org/2000/svg">
<path d="M11.2 17.275C11.4 17.075 11.496 16.8333 11.488 16.55C11.48 16.2667 11.3757 16.025 11.175 15.825L8.35 13H19.5C19.7833 13 20.021 12.904 20.213 12.712C20.405 12.52 20.5007 12.2827 20.5 12C20.5 11.7167 20.404 11.479 20.212 11.287C20.02 11.095 19.7827 10.9993 19.5 11H8.35L11.2 8.14999C11.4 7.94999 11.5 7.71232 11.5 7.43699C11.5 7.16165 11.4 6.92432 11.2 6.72499C11 6.52499 10.7623 6.42499 10.487 6.42499C10.2117 6.42499 9.97433 6.52499 9.775 6.72499L5.2 11.3C5.1 11.4 5.029 11.5083 4.987 11.625C4.945 11.7417 4.92433 11.8667 4.925 12C4.925 12.1333 4.946 12.2583 4.988 12.375C5.03 12.4917 5.10066 12.6 5.2 12.7L9.8 17.3C9.98333 17.4833 10.2123 17.575 10.487 17.575C10.7617 17.575 10.9993 17.475 11.2 17.275Z" fill="white"/>
</svg>
