<svg width="52" height="51" viewBox="0 0 52 51" fill="none" xmlns="http://www.w3.org/2000/svg">
<rect x="0.162598" y="0.0812378" width="51.8375" height="50.8375" rx="25.4188" fill="#B7A580" fill-opacity="0.1"/>
<path opacity="0.2" fill-rule="evenodd" clip-rule="evenodd" d="M35.7435 37.1339H38.8984C39.2122 37.1339 39.5132 37.2585 39.735 37.4804C39.9569 37.7023 40.0815 38.0032 40.0815 38.317C40.0815 38.6307 39.9569 38.9317 39.735 39.1535C39.5132 39.3754 39.2122 39.5001 38.8984 39.5001H16.814C16.5002 39.5001 16.1993 39.3754 15.9774 39.1535C15.7555 38.9317 15.6309 38.6307 15.6309 38.317C15.6309 38.0032 15.7555 37.7023 15.9774 37.4804C16.1993 37.2585 16.5002 37.1339 16.814 37.1339H19.9689V18.2958C19.9689 15.8728 21.7072 13.8663 23.9125 13.8663H31.7999C34.0052 13.8663 35.7435 15.8728 35.7435 18.2958V37.1339Z" fill="#B7A580"/>
<path d="M12.8698 37.5281C12.6606 37.5281 12.46 37.445 12.3121 37.2971C12.1642 37.1492 12.0811 36.9486 12.0811 36.7394C12.0811 36.5302 12.1642 36.3296 12.3121 36.1817C12.46 36.0338 12.6606 35.9507 12.8698 35.9507H38.1092C38.3184 35.9507 38.519 36.0338 38.6669 36.1817C38.8148 36.3296 38.8979 36.5302 38.8979 36.7394C38.8979 36.9486 38.8148 37.1492 38.6669 37.2971C38.519 37.445 38.3184 37.5281 38.1092 37.5281H12.8698Z" fill="#B7A580"/>
<path d="M19.1795 35.9507C19.1795 36.1599 19.0964 36.3605 18.9485 36.5084C18.8006 36.6563 18.6 36.7394 18.3908 36.7394C18.1816 36.7394 17.981 36.6563 17.8331 36.5084C17.6851 36.3605 17.6021 36.1599 17.6021 35.9507V15.9295C17.6021 13.5065 19.3404 11.5 21.5457 11.5H29.433C31.6383 11.5 33.3767 13.5065 33.3767 15.9295V35.9507C33.3767 36.1599 33.2936 36.3605 33.1457 36.5084C32.9978 36.6563 32.7971 36.7394 32.588 36.7394C32.3788 36.7394 32.1782 36.6563 32.0302 36.5084C31.8823 36.3605 31.7992 36.1599 31.7992 35.9507V15.9295C31.7992 14.3315 30.7123 13.0775 29.433 13.0775H21.5457C20.2664 13.0775 19.1795 14.3315 19.1795 15.9295V35.9507Z" fill="#B7A580"/>
<path d="M22.3346 15.4437H23.9121C24.1213 15.4437 24.3219 15.5268 24.4698 15.6747C24.6177 15.8227 24.7008 16.0233 24.7008 16.2325V17.8099C24.7008 18.0191 24.6177 18.2197 24.4698 18.3676C24.3219 18.5156 24.1213 18.5987 23.9121 18.5987H22.3346C22.1254 18.5987 21.9248 18.5156 21.7769 18.3676C21.629 18.2197 21.5459 18.0191 21.5459 17.8099V16.2325C21.5459 16.0233 21.629 15.8227 21.7769 15.6747C21.9248 15.5268 22.1254 15.4437 22.3346 15.4437ZM27.067 15.4437H28.6445C28.8537 15.4437 29.0543 15.5268 29.2022 15.6747C29.3501 15.8227 29.4332 16.0233 29.4332 16.2325V17.8099C29.4332 18.0191 29.3501 18.2197 29.2022 18.3676C29.0543 18.5156 28.8537 18.5987 28.6445 18.5987H27.067C26.8578 18.5987 26.6572 18.5156 26.5093 18.3676C26.3614 18.2197 26.2783 18.0191 26.2783 17.8099V16.2325C26.2783 16.0233 26.3614 15.8227 26.5093 15.6747C26.6572 15.5268 26.8578 15.4437 27.067 15.4437ZM27.067 20.1761H28.6445C28.8537 20.1761 29.0543 20.2592 29.2022 20.4071C29.3501 20.555 29.4332 20.7557 29.4332 20.9648V22.5423C29.4332 22.7515 29.3501 22.9521 29.2022 23.1C29.0543 23.2479 28.8537 23.331 28.6445 23.331H27.067C26.8578 23.331 26.6572 23.2479 26.5093 23.1C26.3614 22.9521 26.2783 22.7515 26.2783 22.5423V20.9648C26.2783 20.7557 26.3614 20.555 26.5093 20.4071C26.6572 20.2592 26.8578 20.1761 27.067 20.1761ZM27.067 24.9085H28.6445C28.8537 24.9085 29.0543 24.9916 29.2022 25.1395C29.3501 25.2874 29.4332 25.4881 29.4332 25.6972V27.2747C29.4332 27.4839 29.3501 27.6845 29.2022 27.8324C29.0543 27.9803 28.8537 28.0634 28.6445 28.0634H27.067C26.8578 28.0634 26.6572 27.9803 26.5093 27.8324C26.3614 27.6845 26.2783 27.4839 26.2783 27.2747V25.6972C26.2783 25.4881 26.3614 25.2874 26.5093 25.1395C26.6572 24.9916 26.8578 24.9085 27.067 24.9085ZM27.067 29.6409H28.6445C28.8537 29.6409 29.0543 29.724 29.2022 29.8719C29.3501 30.0198 29.4332 30.2204 29.4332 30.4296V32.0071C29.4332 32.2163 29.3501 32.4169 29.2022 32.5648C29.0543 32.7127 28.8537 32.7958 28.6445 32.7958H27.067C26.8578 32.7958 26.6572 32.7127 26.5093 32.5648C26.3614 32.4169 26.2783 32.2163 26.2783 32.0071V30.4296C26.2783 30.2204 26.3614 30.0198 26.5093 29.8719C26.6572 29.724 26.8578 29.6409 27.067 29.6409ZM22.3346 20.1761H23.9121C24.1213 20.1761 24.3219 20.2592 24.4698 20.4071C24.6177 20.555 24.7008 20.7557 24.7008 20.9648V22.5423C24.7008 22.7515 24.6177 22.9521 24.4698 23.1C24.3219 23.2479 24.1213 23.331 23.9121 23.331H22.3346C22.1254 23.331 21.9248 23.2479 21.7769 23.1C21.629 22.9521 21.5459 22.7515 21.5459 22.5423V20.9648C21.5459 20.7557 21.629 20.555 21.7769 20.4071C21.9248 20.2592 22.1254 20.1761 22.3346 20.1761ZM22.3346 29.6409H23.9121C24.1213 29.6409 24.3219 29.724 24.4698 29.8719C24.6177 30.0198 24.7008 30.2204 24.7008 30.4296V32.0071C24.7008 32.2163 24.6177 32.4169 24.4698 32.5648C24.3219 32.7127 24.1213 32.7958 23.9121 32.7958H22.3346C22.1254 32.7958 21.9248 32.7127 21.7769 32.5648C21.629 32.4169 21.5459 32.2163 21.5459 32.0071V30.4296C21.5459 30.2204 21.629 30.0198 21.7769 29.8719C21.9248 29.724 22.1254 29.6409 22.3346 29.6409ZM22.3346 24.9085H23.9121C24.1213 24.9085 24.3219 24.9916 24.4698 25.1395C24.6177 25.2874 24.7008 25.4881 24.7008 25.6972V27.2747C24.7008 27.4839 24.6177 27.6845 24.4698 27.8324C24.3219 27.9803 24.1213 28.0634 23.9121 28.0634H22.3346C22.1254 28.0634 21.9248 27.9803 21.7769 27.8324C21.629 27.6845 21.5459 27.4839 21.5459 27.2747V25.6972C21.5459 25.4881 21.629 25.2874 21.7769 25.1395C21.9248 24.9916 22.1254 24.9085 22.3346 24.9085Z" fill="#B7A580"/>
</svg>
