<svg width="36" height="36" viewBox="0 0 36 36" fill="none" xmlns="http://www.w3.org/2000/svg">
<g clip-path="url(#clip0_45_1227)">
<path d="M7.74502 30.7999C5.31583 30.7999 3.41801 29.9618 2.05159 28.2856C0.685165 26.5333 0.00195312 23.9428 0.00195312 20.5142C0.00195312 16.9333 0.799033 13.5047 2.39319 10.2285C4.06327 6.95229 6.41655 3.71419 9.45307 0.514194C9.52899 0.437999 9.64283 0.399902 9.79467 0.399902C10.0224 0.399902 10.1742 0.514189 10.2501 0.742762C10.402 0.895141 10.4399 1.08562 10.364 1.31419C8.54211 3.75229 7.28955 6.11419 6.60634 8.3999C5.99903 10.6094 5.69538 13.0856 5.69538 15.8285C5.69538 17.8856 5.96108 19.4856 6.49247 20.6285C7.02385 21.7713 7.74502 22.7999 8.65595 23.7142L4.32896 24.5142C4.25305 23.2189 4.59466 22.2285 5.35378 21.5428C6.18882 20.857 7.25159 20.5142 8.54211 20.5142C10.1363 20.5142 11.3508 20.9713 12.1859 21.8856C13.0968 22.7999 13.5524 24.057 13.5524 25.657C13.5524 27.3333 13.0209 28.6285 11.9582 29.5428C10.9713 30.3809 9.56691 30.7999 7.74502 30.7999ZM25.2808 30.7999C22.8516 30.7999 20.9538 29.9618 19.5874 28.2856C18.2968 26.5333 17.6516 23.9428 17.6516 20.5142C17.6516 16.857 18.4487 13.3904 20.0428 10.1142C21.637 6.838 23.9903 3.638 27.1027 0.514194C27.1786 0.437999 27.2924 0.399902 27.4443 0.399902C27.672 0.399902 27.8239 0.514189 27.8998 0.742762C28.0516 0.895141 28.0896 1.08562 28.0136 1.31419C26.1917 3.75229 24.9392 6.11419 24.256 8.3999C23.6487 10.6094 23.345 13.0856 23.345 15.8285C23.345 17.8856 23.5728 19.5237 24.0282 20.7428C24.5596 21.8856 25.2808 22.8761 26.1917 23.7142L21.9786 24.5142C21.9027 23.2189 22.2443 22.2285 23.0034 21.5428C23.7625 20.857 24.8253 20.5142 26.1917 20.5142C27.7859 20.5142 29.0005 20.9713 29.8356 21.8856C30.7465 22.7999 31.202 24.057 31.202 25.657C31.202 27.3333 30.6706 28.6285 29.6078 29.5428C28.6209 30.3809 27.1786 30.7999 25.2808 30.7999Z" fill="#B7A580"/>
</g>
<defs>
<clipPath id="clip0_45_1227">
<rect width="36" height="35.2" fill="white" transform="translate(0 0.399902)"/>
</clipPath>
</defs>
</svg>
